<svg xmlns="http://www.w3.org/2000/svg" width="199.617" height="200" viewBox="0 0 199.617 200">
  <g id="logo-circle" transform="translate(-3766.053 710)">
    <path id="Path_7" data-name="Path 7" d="M97,0c53.572,0,97,44.772,97,100S150.572,200,97,200,0,155.228,0,100,43.428,0,97,0Z" transform="translate(3770 -710)" fill="#0094e2"/>
    <path id="Intersection_1" data-name="Intersection 1" d="M97.584,180.333C43.651,180.1,0,135.322,0,80.113A100.838,100.838,0,0,1,39.107,0c18.867,23.449,46.114,48.717,64.046,65.347,3.4,3.151,6.609,6.128,9.37,8.727a38.44,38.44,0,0,1,6.044,7.361,50.139,50.139,0,0,1,4.416,8.862,87,87,0,0,1,4.886,21.231c1.813,15.382,1.159,32.747.526,49.54v.006c-.189,5.008-.37,9.809-.487,14.507a95.954,95.954,0,0,1-29.492,4.752Z" transform="translate(3770 -690.333)" fill="#01a4fb"/>
    <path id="Path_17" data-name="Path 17" d="M4.427,6.052c2.236.673,4.585,1.506,4.585,1.506L9,53.5a4.5,4.5,0,0,1-9,0L.069,4.865S2.192,5.379,4.427,6.052Z" transform="matrix(0.438, 0.899, -0.899, 0.438, 3966.092, -633.757)" fill="#fff"/>
    <path id="Path_16" data-name="Path 16" d="M4.5,0A4.5,4.5,0,0,1,9,4.5L8.657,75.569S6.609,77.734,4.49,79.691.18,83.4.18,83.4L0,4.5A4.5,4.5,0,0,1,4.5,0Z" transform="matrix(0.438, 0.899, -0.899, 0.438, 3902.157, -555.47)" fill="#fff"/>
    <rect id="Rectangle_8" data-name="Rectangle 8" width="9" height="85" rx="4.5" transform="matrix(0.438, 0.899, -0.899, 0.438, 3899.36, -628.593)" fill="#fff"/>
    <path id="Path_15" data-name="Path 15" d="M4.5,0A4.5,4.5,0,0,1,9,4.5L9,96.872l-5.015-2.62L.081,92,0,4.5A4.5,4.5,0,0,1,4.5,0Z" transform="matrix(0.438, 0.899, -0.899, 0.438, 3853.121, -660.621)" fill="#fff"/>
  </g>
</svg>
